<mxfile host="app.diagrams.net" modified="2024-02-17T18:36:25.624Z" agent="Mozilla/5.0 (Macintosh; Intel Mac OS X 10_15_7) AppleWebKit/537.36 (KHTML, like Gecko) Chrome/121.0.0.0 Safari/537.36" etag="qiegU0c8pMG31PnF2pDw" version="23.1.1" type="github">
  <diagram name="Page-1" id="mc9bI3C520gTaEymOS_p">
    <mxGraphModel dx="896" dy="615" grid="1" gridSize="10" guides="1" tooltips="1" connect="1" arrows="1" fold="1" page="1" pageScale="1" pageWidth="1654" pageHeight="1169" math="0" shadow="0">
      <root>
        <mxCell id="0" />
        <mxCell id="1" parent="0" />
        <mxCell id="8BUuhiwR4jJxFcgMLjju-2" value="" style="html=1;outlineConnect=0;whiteSpace=wrap;fillColor=#ffff99;verticalLabelPosition=bottom;verticalAlign=top;align=center;shape=mxgraph.archimate3.actor;" parent="1" vertex="1">
          <mxGeometry x="60" y="170" width="26.5" height="50" as="geometry" />
        </mxCell>
        <mxCell id="8BUuhiwR4jJxFcgMLjju-3" value="Operator" style="text;html=1;align=center;verticalAlign=middle;whiteSpace=wrap;rounded=0;" parent="1" vertex="1">
          <mxGeometry x="43.25" y="220" width="60" height="30" as="geometry" />
        </mxCell>
        <mxCell id="8BUuhiwR4jJxFcgMLjju-4" value="Login/Logout" style="ellipse;whiteSpace=wrap;html=1;" parent="1" vertex="1">
          <mxGeometry x="160" y="130" width="120" height="80" as="geometry" />
        </mxCell>
        <mxCell id="8BUuhiwR4jJxFcgMLjju-5" value="View Sensor Data" style="ellipse;whiteSpace=wrap;html=1;" parent="1" vertex="1">
          <mxGeometry x="160" y="230" width="120" height="80" as="geometry" />
        </mxCell>
        <mxCell id="8BUuhiwR4jJxFcgMLjju-6" value="Switch on/off the pump" style="ellipse;whiteSpace=wrap;html=1;" parent="1" vertex="1">
          <mxGeometry x="160" y="330" width="120" height="80" as="geometry" />
        </mxCell>
        <mxCell id="8BUuhiwR4jJxFcgMLjju-7" value="high water sensor" style="ellipse;whiteSpace=wrap;html=1;" parent="1" vertex="1">
          <mxGeometry x="350" y="210" width="120" height="80" as="geometry" />
        </mxCell>
        <mxCell id="8BUuhiwR4jJxFcgMLjju-8" value="low water sensor" style="ellipse;whiteSpace=wrap;html=1;" parent="1" vertex="1">
          <mxGeometry x="350" y="120" width="120" height="80" as="geometry" />
        </mxCell>
        <mxCell id="8BUuhiwR4jJxFcgMLjju-9" value="methane level sensor" style="ellipse;whiteSpace=wrap;html=1;" parent="1" vertex="1">
          <mxGeometry x="350" y="300" width="120" height="80" as="geometry" />
        </mxCell>
        <mxCell id="8BUuhiwR4jJxFcgMLjju-10" value="Pump system" style="ellipse;whiteSpace=wrap;html=1;" parent="1" vertex="1">
          <mxGeometry x="350" y="400" width="120" height="80" as="geometry" />
        </mxCell>
        <mxCell id="8BUuhiwR4jJxFcgMLjju-12" value="" style="endArrow=none;html=1;rounded=0;endFill=0;" parent="1" source="8BUuhiwR4jJxFcgMLjju-8" target="8BUuhiwR4jJxFcgMLjju-5" edge="1">
          <mxGeometry width="50" height="50" relative="1" as="geometry">
            <mxPoint x="380" y="300" as="sourcePoint" />
            <mxPoint x="430" y="250" as="targetPoint" />
          </mxGeometry>
        </mxCell>
        <mxCell id="8BUuhiwR4jJxFcgMLjju-13" value="" style="endArrow=none;html=1;rounded=0;exitX=-0.002;exitY=0.548;exitDx=0;exitDy=0;exitPerimeter=0;endFill=0;" parent="1" source="8BUuhiwR4jJxFcgMLjju-7" edge="1">
          <mxGeometry width="50" height="50" relative="1" as="geometry">
            <mxPoint x="375" y="196" as="sourcePoint" />
            <mxPoint x="275" y="254" as="targetPoint" />
          </mxGeometry>
        </mxCell>
        <mxCell id="8BUuhiwR4jJxFcgMLjju-14" value="" style="endArrow=none;html=1;rounded=0;exitX=0;exitY=0.375;exitDx=0;exitDy=0;exitPerimeter=0;entryX=1;entryY=0.5;entryDx=0;entryDy=0;endFill=0;" parent="1" source="8BUuhiwR4jJxFcgMLjju-9" target="8BUuhiwR4jJxFcgMLjju-5" edge="1">
          <mxGeometry width="50" height="50" relative="1" as="geometry">
            <mxPoint x="385" y="206" as="sourcePoint" />
            <mxPoint x="285" y="264" as="targetPoint" />
          </mxGeometry>
        </mxCell>
        <mxCell id="8BUuhiwR4jJxFcgMLjju-15" value="" style="endArrow=none;html=1;rounded=0;exitX=0;exitY=0.375;exitDx=0;exitDy=0;exitPerimeter=0;entryX=1;entryY=0.5;entryDx=0;entryDy=0;endFill=0;" parent="1" edge="1">
          <mxGeometry width="50" height="50" relative="1" as="geometry">
            <mxPoint x="350" y="440" as="sourcePoint" />
            <mxPoint x="280" y="380" as="targetPoint" />
          </mxGeometry>
        </mxCell>
        <mxCell id="8BUuhiwR4jJxFcgMLjju-16" value="" style="endArrow=none;html=1;rounded=0;exitX=-0.01;exitY=0.548;exitDx=0;exitDy=0;exitPerimeter=0;entryX=1;entryY=0.5;entryDx=0;entryDy=0;endFill=0;" parent="1" source="8BUuhiwR4jJxFcgMLjju-4" edge="1">
          <mxGeometry width="50" height="50" relative="1" as="geometry">
            <mxPoint x="156.5" y="250" as="sourcePoint" />
            <mxPoint x="86.5" y="190" as="targetPoint" />
          </mxGeometry>
        </mxCell>
        <mxCell id="8BUuhiwR4jJxFcgMLjju-17" value="" style="endArrow=none;html=1;rounded=0;endFill=0;" parent="1" edge="1">
          <mxGeometry width="50" height="50" relative="1" as="geometry">
            <mxPoint x="160" y="263" as="sourcePoint" />
            <mxPoint x="90" y="190" as="targetPoint" />
          </mxGeometry>
        </mxCell>
        <mxCell id="8BUuhiwR4jJxFcgMLjju-18" value="" style="endArrow=none;html=1;rounded=0;exitX=0.008;exitY=0.366;exitDx=0;exitDy=0;exitPerimeter=0;endFill=0;" parent="1" source="8BUuhiwR4jJxFcgMLjju-6" edge="1">
          <mxGeometry width="50" height="50" relative="1" as="geometry">
            <mxPoint x="159" y="204" as="sourcePoint" />
            <mxPoint x="90" y="190" as="targetPoint" />
          </mxGeometry>
        </mxCell>
        <mxCell id="8BUuhiwR4jJxFcgMLjju-19" value="" style="html=1;outlineConnect=0;whiteSpace=wrap;fillColor=#ffff99;verticalLabelPosition=bottom;verticalAlign=top;align=center;shape=mxgraph.archimate3.actor;" parent="1" vertex="1">
          <mxGeometry x="60" y="410" width="26.5" height="50" as="geometry" />
        </mxCell>
        <mxCell id="8BUuhiwR4jJxFcgMLjju-20" value="Supervisor" style="text;html=1;align=center;verticalAlign=middle;whiteSpace=wrap;rounded=0;" parent="1" vertex="1">
          <mxGeometry x="43.25" y="460" width="60" height="30" as="geometry" />
        </mxCell>
        <mxCell id="8BUuhiwR4jJxFcgMLjju-21" value="" style="endArrow=none;html=1;rounded=0;entryX=0.108;entryY=0.788;entryDx=0;entryDy=0;entryPerimeter=0;" parent="1" target="8BUuhiwR4jJxFcgMLjju-4" edge="1">
          <mxGeometry width="50" height="50" relative="1" as="geometry">
            <mxPoint x="86.5" y="430" as="sourcePoint" />
            <mxPoint x="136.5" y="380" as="targetPoint" />
          </mxGeometry>
        </mxCell>
        <mxCell id="8BUuhiwR4jJxFcgMLjju-22" value="" style="endArrow=none;html=1;rounded=0;entryX=0.104;entryY=0.809;entryDx=0;entryDy=0;entryPerimeter=0;" parent="1" target="8BUuhiwR4jJxFcgMLjju-5" edge="1">
          <mxGeometry width="50" height="50" relative="1" as="geometry">
            <mxPoint x="86.5" y="430" as="sourcePoint" />
            <mxPoint x="136.5" y="380" as="targetPoint" />
          </mxGeometry>
        </mxCell>
        <mxCell id="8BUuhiwR4jJxFcgMLjju-23" value="" style="endArrow=none;html=1;rounded=0;entryX=0.08;entryY=0.773;entryDx=0;entryDy=0;entryPerimeter=0;" parent="1" target="8BUuhiwR4jJxFcgMLjju-6" edge="1">
          <mxGeometry width="50" height="50" relative="1" as="geometry">
            <mxPoint x="86.5" y="430" as="sourcePoint" />
            <mxPoint x="136.5" y="380" as="targetPoint" />
          </mxGeometry>
        </mxCell>
        <mxCell id="8BUuhiwR4jJxFcgMLjju-24" value="Evacuation Alarm" style="ellipse;whiteSpace=wrap;html=1;" parent="1" vertex="1">
          <mxGeometry x="160" y="425" width="120" height="80" as="geometry" />
        </mxCell>
        <mxCell id="8BUuhiwR4jJxFcgMLjju-25" value="" style="endArrow=none;html=1;rounded=0;entryX=0;entryY=1;entryDx=0;entryDy=0;exitX=0.889;exitY=0.18;exitDx=0;exitDy=0;exitPerimeter=0;" parent="1" source="8BUuhiwR4jJxFcgMLjju-24" target="8BUuhiwR4jJxFcgMLjju-9" edge="1">
          <mxGeometry width="50" height="50" relative="1" as="geometry">
            <mxPoint x="270" y="480" as="sourcePoint" />
            <mxPoint x="320" y="430" as="targetPoint" />
          </mxGeometry>
        </mxCell>
        <mxCell id="8BUuhiwR4jJxFcgMLjju-26" value="" style="endArrow=none;html=1;rounded=0;entryX=0.025;entryY=0.677;entryDx=0;entryDy=0;entryPerimeter=0;exitX=1;exitY=0.5;exitDx=0;exitDy=0;" parent="1" source="8BUuhiwR4jJxFcgMLjju-6" target="8BUuhiwR4jJxFcgMLjju-9" edge="1">
          <mxGeometry width="50" height="50" relative="1" as="geometry">
            <mxPoint x="270" y="370" as="sourcePoint" />
            <mxPoint x="320" y="320" as="targetPoint" />
          </mxGeometry>
        </mxCell>
        <mxCell id="8BUuhiwR4jJxFcgMLjju-27" value="&lt;div&gt;View/Add notes to Event logs&lt;/div&gt;" style="ellipse;whiteSpace=wrap;html=1;" parent="1" vertex="1">
          <mxGeometry x="350" y="530" width="120" height="80" as="geometry" />
        </mxCell>
        <mxCell id="8BUuhiwR4jJxFcgMLjju-28" value="" style="endArrow=none;html=1;rounded=0;entryX=-0.001;entryY=0.42;entryDx=0;entryDy=0;entryPerimeter=0;" parent="1" target="8BUuhiwR4jJxFcgMLjju-27" edge="1">
          <mxGeometry width="50" height="50" relative="1" as="geometry">
            <mxPoint x="86.5" y="430" as="sourcePoint" />
            <mxPoint x="136.5" y="380" as="targetPoint" />
            <Array as="points">
              <mxPoint x="210" y="520" />
            </Array>
          </mxGeometry>
        </mxCell>
      </root>
    </mxGraphModel>
  </diagram>
</mxfile>
